<svg width="199" height="76" viewBox="0 0 199 76" fill="none" xmlns="http://www.w3.org/2000/svg">
<path d="M173.981 75.0039H1.5V1.00391H196.98L173.981 75.0039Z" fill="#8ABAB0"/>
<path d="M7.98994 68.001L169 68.001L174 75.001L1 75.001L7.98994 68.001Z" fill="#4A645E"/>
<path d="M7.24218 7.00391L7.24218 68.0034L0.242188 75.0039L0.242187 1.00391L7.24218 7.00391Z" fill="#4A645E"/>
<path fill-rule="evenodd" clip-rule="evenodd" d="M172.28 74L2.93187 73.9971L7.92802 69.001H9.00095H168.764L172.28 74ZM173.89 72.8133L195.66 3.87637L189.096 8.28633L188.871 9.001L170.374 67.8131L173.89 72.8133ZM168.543 66.9686L186.774 9.001H9.00095V67.001H168.497L168.543 66.9686ZM194.866 2.00003L187.423 7.001H187.403H9.00095H8.49507L2.5425 2.00003H194.866ZM2.00095 4.15721V72.0996L7.00095 67.0996V67.001V9.001V8.35788L2.00095 4.15721ZM2.00092 75.9971C0.932876 75.9971 0.0603788 75.1599 0.00386024 74.1059L-0.000747912 74.1013L0.00340248 74.0972C0.00176979 74.064 0.000945814 74.0307 0.000945814 73.9971V2.00003C0.000945814 0.895458 0.896393 2.68318e-05 2.00095 2.68318e-05H196.252C197.604 2.68318e-05 198.567 1.31324 198.16 2.60229L175.423 74.6023C175.16 75.4343 174.388 76 173.516 76L2.00092 75.9971Z" fill="black"/>
</svg>
