<svg width="325" height="77" viewBox="0 0 325 77" fill="none" xmlns="http://www.w3.org/2000/svg">
<path d="M25 1.99707H322.999V75.9971H7.5L25 1.99707Z" fill="#8ABAB0"/>
<path d="M24.5 3L29.5 9.5L10.5 69.4971L2 75.4971L24.5 3Z" fill="#4A645E"/>
<path d="M11 69.5H317L324 76L2 75.5L11 69.5Z" fill="#4A645E"/>
<path fill-rule="evenodd" clip-rule="evenodd" d="M25.7013 2.99707L321.313 2.99707L316.313 7.99707H315.999H29.2179L25.7013 2.99707ZM24.7804 5.16432L3.44394 72.7299L9.97993 68.4709L10.128 68L28.3112 10.1843L24.7804 5.16432ZM3.628 74.9971L11.2968 70H11.5956H315.999H316.617L321.813 74.9971H3.628ZM322.999 73.3631V4.13962L317.999 9.13962V9.99707V68V68.5543L322.999 73.3631ZM23.5577 2.39481C23.8204 1.56275 24.5923 0.99707 25.4648 0.99707H322.999C324.104 0.99707 324.999 1.8925 324.999 2.99707V74.9971C324.999 76.1016 324.104 76.9971 322.999 76.9971H2.72799C1.3762 76.9971 0.413747 75.6839 0.820813 74.3948L23.5577 2.39481ZM12.2246 68L30.4666 9.99707H315.999V68H12.2246Z" fill="black"/>
</svg>
