<svg width="259" height="76" viewBox="0 0 259 76" fill="none" xmlns="http://www.w3.org/2000/svg">
<path d="M2 1H257V75H2V1Z" fill="#8ABAB0"/>
<path d="M2 1L9 8V68L2 74V1Z" fill="#4A645E"/>
<path d="M8.93164 68.5029H250.203L256.932 74.5H1.93164L8.93164 68.5029Z" fill="#4A645E"/>
<path fill-rule="evenodd" clip-rule="evenodd" d="M3.93162 2.00096L254.514 2.00001L249.514 6.99999H249.201H9.92969H8.93066L3.93162 2.00096ZM2.92968 72.2452L7.92969 67.9127V67.0029V8.99999V8.82746L2.92969 3.82745L2.92968 72.2452ZM9.72556 69.0029L3.95868 74H255.014L249.818 69.0029H249.201H9.92969H9.72556ZM256.201 3.14153L256.201 72.3669L251.201 67.5581V67.0029V8.99999V8.14154L256.201 3.14153ZM0.929688 2.00096C0.929688 0.896396 1.82511 0.000965572 2.92968 0.000961379L256.201 0C257.306 -4.1926e-06 258.201 0.895428 258.201 2V74C258.201 75.1046 257.306 76 256.201 76H2.92968C1.82511 76 0.929688 75.1046 0.929688 74V2.00096ZM9.92969 8.99999H249.201V67.0029H9.92969V8.99999Z" fill="black"/>
</svg>
